<svg xmlns="http://www.w3.org/2000/svg" viewBox="0 0 2500 300"><defs id="defs828"><clipPath clipPathUnits="userSpaceOnUse" id="clipPath838"><path d="M 0,94.961 H 414.435 V 0 H 0 Z" id="path836"/></clipPath></defs><defs><style>.minerva-base-style{}</style></defs><g transform="translate(0 0) scale(1.4285714285714286) translate(0 0)" style="fill: #006c66;"><title>minerva</title><path d="M105,0A105,105,0,1,0,210,105,105.1,105.1,0,0,0,105,0Zm0,207.1A102.1,102.1,0,1,1,207.1,105,102.2,102.2,0,0,1,105,207.1Z"/><path class="minerva-base-style" d="M166.6,97c-1.4-3.1-.5-5.1-.9-7.3s-2.7-7-4.3-10.8c-.7-1.7,3.8-1.3.4-7.6,0-.2,4.7-2,0-5.5a26.4,26.4,0,0,1-6-6.7,1,1,0,0,1,0-1.3c2.7-2.4,2.8-5.8-.1-7.5s-4.5,0-6.7,1.4c-.7.5-1.1.8-1.9.5L145.3,51c2.7-2.6,3.3-5.2,3.1-5.6s-4.6-1.3-10.2,1l-.4-.3c2.3-3.9,1-6.7.9-6.9h-.1A81,81,0,0,1,151,25.9h.1c.2-.3.3-.6-.2-.9l-1-.6A92.4,92.4,0,0,0,12.7,105c0,29.5,15,57.9,39.4,75.6a13.5,13.5,0,0,0,2.8,1.6A1.1,1.1,0,0,0,56,182l.3-.5a1,1,0,0,0,.3-.8c0-.7-.9-1.3-2.1-3a27.7,27.7,0,0,1-4.7-15.1,22.1,22.1,0,0,1,4.5-13.7c3.7,3.9,11.7,10.9,11.5,17.4s-6.9,6.8-5.4,12.2c.9,3.4,3.4,2,3.9,4.6.7,4.4,6.7,7.3,9.3,6.9.7-.1,1.2.4,2.4,1.7s6.2,1.6,8.2,1.2,4.1,1.4,8,.9,6.1-.9,8.2-.9,22.5-.3,36,1.8c2.4.4,3.1-.7,2.1-2.5-4.9-8.6-5.6-15.8-2.8-25,5,.4,12.2,1.7,21.6-4a11,11,0,0,0,5.1-9.5c-.1-2.1-1-4.7-.5-6.7s1.3-2.7,2.1-3.2c3.6-2.6,1-4.6.4-4.8a3.4,3.4,0,0,0,1.1-4.6c-.7-.7-2.7-6.2-.4-7.3s5.3-1.8,8.1-3.1a4.5,4.5,0,0,0,2.4-6C174.2,114.4,166.8,97.4,166.6,97ZM64.7,179.1c-.7.2-2.9.3-2.4-2.7s2.3-2.6,3.3-1.6S64.9,177.6,64.7,179.1Zm87-125.9c1.2-.8,2.5-1.1,3.3-.4,2.6,2.6-2.9,4.1-1.8,6.1a30.7,30.7,0,0,0,7.5,8.4c1.2,1,1.4,3.1-3.3,4.1s-23.6,5.9-33.6,16.5c-12.5,13.2-20.4,30.3-21.5,28s-3.6-2.8-3.2-3.5C117,81.6,145.1,57.3,151.7,53.2Zm8.2,21.7c-1,2.9-9.1,5.5-8.7,3.5s0-2.2.6-2.3,3.5-1.1,7.5-2.1C159.7,73.9,160.2,74.1,159.9,74.9Zm-20.6,5.3c-.2-1.2,8.5-4.1,8.8-3.3s-1.8,6-4.7,7-4.7.9-4.6.4A11,11,0,0,0,139.3,80.2ZM119,125.8c-4,2.5-6.2-2.2-6.8-3.1a3.7,3.7,0,0,1-.5-3.1c.3-1.4.5-3.3-.4-9.3-.4-2.7,5-9.2,6.3-10.4s3.1.6,3.2,2.6c.3,3.6-1.8,5.6-3.9,7.2s-3.1,4.4-2.6,5.1a1.5,1.5,0,0,0,1.9-.9c1.5-3.3,6-4.9,6.7-6.7s.3-4.4.2-5.6.9-1.2,1.6-1.1,1.4,1.4,1.8,2.7c2.9,7.5-4.3,12-5.5,13.8S122.1,123.9,119,125.8Zm6.1-29.1c-2.2,1.5-5.3-.5-4.7-1.4a43.7,43.7,0,0,1,11.5-11c3.4-2.1,3.8-2.3,4-1.1a10.6,10.6,0,0,1-2.6,7.5c-2.3,2.5-4.6,2.3-5.8,2.6S126.7,95.6,125.1,96.7Zm-19.3,25.6c-1-.2-1.4-2.1-1.2-2.9s3.1-5.2,4-6.4a.5.5,0,0,1,.8.3C110,117.4,109.4,123.1,105.8,122.3ZM138,48.2a17.7,17.7,0,0,1,7.5-1.6c.8.1-1.9,4.8-6.6,6.8s-8.5,2.5-8.9,2.3S134.1,49.9,138,48.2ZM54.7,126.5c-1.5-1.7-2.8-2.6-2.9-2.5a22.4,22.4,0,0,0-3.6,8.9A65.4,65.4,0,0,1,40.7,105C39.3,69.6,69,41.1,105.2,41.2a56.8,56.8,0,0,1,22.4,4.6,31.3,31.3,0,0,0-3.7,6.6c0-1.9-.5-3.4-.4-4.6s-5.1.9-9.7,8.3a19.9,19.9,0,0,0-2.2,5.3c-.1-2.8-.7-4.9-.9-4.9a16.1,16.1,0,0,0-8.5,8.8,22.4,22.4,0,0,0-1.1,3.4c-.2-1.9-.7-3.2-.9-3.2s-5.9,2.3-8.6,8.9A15.4,15.4,0,0,0,90.5,79c-.5-2.3-1.4-3.7-1.7-3.4-1.9,2.4-5.7,3.5-7.6,9.6a13.2,13.2,0,0,0-.7,4.2c-.8-2-2-3.2-2.3-3.2s-6.1,5.5-7,10.9a15.8,15.8,0,0,0,.2,5.8c-1.1-1.8-2.5-3-3.1-4.8-.9.5-5.7,5-5.8,10.7a19.7,19.7,0,0,0,.7,6.1c-1.6-2.9-3.8-4.2-4.1-4.1s-4,4.1-4.8,11.1A11.8,11.8,0,0,0,54.7,126.5Zm74.1-79.7c2.8-3.4,7.6-6.1,8.2-5.8s-.8,5.6-3.9,8.6-8.1,6.2-8.6,6.1S126.2,49.8,128.8,46.8Zm-9.3,13a21,21,0,0,0-5.6,6.4c-.5.9-1.9-5,1.7-10.6,2.2-3.5,6.6-6.6,6.5-6.2S124.2,56,119.5,59.8Zm-10.1,7.5c-3.4,5.1-3.6,3.3-7.3,8.3-.2.2-.2-6.5,1.1-9.4,2.1-4.7,5.7-7.4,6.2-7.5S111.3,64.5,109.4,67.3ZM98.3,77.4c-1.7,3-3.3,2.3-6.2,6.7-.3.4-1.1-3.6.7-9.1a12.6,12.6,0,0,1,5.9-6.9C99.3,68,100.4,73.8,98.3,77.4ZM88,88.1c-1.8,3.9-2.9,4-5,6.4-.3.4-1.8-3.7-.4-8.8s4-5.6,5.3-7S89.9,84,88,88.1Zm-8.4,6.6a10.3,10.3,0,0,1-.4,3c-1.3,4.3-3.9,6.2-5.3,8.1a15.7,15.7,0,0,1-1.6-5.8,15.2,15.2,0,0,1,5.2-11.2C78.3,88.8,79.6,92,79.6,94.7Zm-8.5,12.8A14.9,14.9,0,0,1,66,118.3a17.7,17.7,0,0,1-2.2-7.6c-.2-6.3,2.4-8.5,3.6-9.7C67.9,102.8,71.1,104.2,71.1,107.5ZM59,113.8c1.8.9,3.9,3.4,4.1,8.2s-3.2,8.7-4.6,9.4c-.9-3.7-2.6-4.4-2.6-8A18,18,0,0,1,59,113.8Zm7.3,12.5c4.6-2,9.6-1.7,9.8-1.5s-1.5,5.9-5.9,8.2-9.5,2.7-10,2.1S61.7,128.3,66.3,126.3Zm-.4-3.4c.3-1.5,3-6.5,7.1-8.3h0a18.4,18.4,0,0,1,9.4-1.5c.5.2-1.7,5.6-5.8,7.6S70.1,121.6,65.9,122.9Zm6.9-11.8c.2-.4,3.5-6.4,7.4-8.2a17.5,17.5,0,0,1,8.9-1.4c.3.1-1.8,5.4-6.2,7.6S72.6,111.6,72.8,111.1Zm8.9-11.9c-.3-.2,4.4-6.4,8.4-8.3a15.6,15.6,0,0,1,8.4-1c.3.3-1.9,5.5-6.5,7.5A24.2,24.2,0,0,1,81.7,99.2ZM92.4,87.4c-.2-.2,3.4-6.3,7.4-7.9s7.7-.1,8.9,0-1.3,4.5-6.6,6.4S93.1,87.7,92.4,87.4Zm12-11.4c.1-.3,4.1-5.9,8.1-7.3a16.4,16.4,0,0,1,9.2-.2c.5.2-2.8,5-7.7,6.5S104.3,76.3,104.4,76Zm12.1-9.9c-.5-.3,4.3-5.7,8.2-7.2a18,18,0,0,1,8.3-1c.3.2-2.5,4.9-7.1,6.7S117.1,66.5,116.5,66.1ZM50.2,175.3C28.6,158.1,15.6,132.1,15.6,105A89.3,89.3,0,0,1,146.4,25.8a.4.4,0,0,1,.1.7,97.3,97.3,0,0,0-10.2,11.4,73.1,73.1,0,0,0-31.3-7A74.3,74.3,0,0,0,30.9,105a72.1,72.1,0,0,0,17.9,48.2,23.1,23.1,0,0,0-1.9,9.4A25.6,25.6,0,0,0,50.2,175.3Zm.2-24.8h-.1A69.2,69.2,0,0,1,33.9,105,71.2,71.2,0,0,1,105,33.9a70.1,70.1,0,0,1,29.6,6.4,22.6,22.6,0,0,0-4.1,2.6A63.1,63.1,0,0,0,105,37.8,67.3,67.3,0,0,0,37.8,105c0,16.1,5,30.2,14.8,42C52.1,147.9,51.3,149.1,50.4,150.5Zm3.5-5.6c-1.3-1.2-4.1-4.3-4.4-8.3V136c0-4.3,1.9-8.6,2.4-9s5.3,3.3,5.4,8.7A14.4,14.4,0,0,1,53.9,144.9Zm8-7.2c3.9-1.8,9.6-1.4,9.3-1.1s-1.8,5.8-6.2,8a12.1,12.1,0,0,1-8.7,1.3C58.6,143.3,58.1,139.5,61.9,137.7Zm5.2,46.5c-.6-2.7-.4-6.3.5-7.3s4.9-1.2,5-.1-1.1,5.4.3,10.2C72.6,187.7,68.3,187.4,67.1,184.2Zm.3-11.1c-.3-2,1.6-3.9,1.6-8.2s-6.6-12.6-11.1-17.3a19.5,19.5,0,0,0,7.9-1.9c6.6-3.1,7.9-10.1,8.1-10.4a11,11,0,0,0-3.8-.4l.8-.4c6.4-3.5,8.1-11,7.8-11.1a17,17,0,0,0-4-.3l2-.7c6.8-2.7,8.7-10.3,8.5-10.6a16.1,16.1,0,0,0-3.5-.4l1.9-.8c6.2-3.1,8.4-10.1,8.1-10.3a10.5,10.5,0,0,0-3.3-.4,23.7,23.7,0,0,0,4.5-1.5c6.7-2.9,8.9-9.3,8.6-9.6a10.9,10.9,0,0,0-3-.5,34.5,34.5,0,0,0,4.4-1.3c6.6-2.2,9.2-8.5,8.8-8.6l-3.7-.8a24.5,24.5,0,0,0,6.6-1.3c7.1-2.4,9.6-6.7,9.8-8.6a6,6,0,0,0-2.3-.8,29.3,29.3,0,0,0,4.7-1.2c6.6-2.7,9.4-9.3,9.6-9.8a29.3,29.3,0,0,0,3.9-1.6l1.9-.9,1.6,1.1c1,.6,1.4.8.9,1.2C122,75,105,99.5,97.6,111.3c-.2.4-.6.3-1.3.3-7.9-.6-12.4,8.9-8.9,17.8-.4,1.8-4.2,5.3-4.5,5.5s-1,1.4.3,1.3,4.2-3.2,5.4-4.5c.4.6,2.2,2,1.3,2.8A63.6,63.6,0,0,1,76,145c-2.6,1.2,4.2,2.1,15.7-8.3.7-.6,1.5,2.4,2.5,3.7-2,6.5,2.9,19.1,2.1,23a2.8,2.8,0,0,1-2.8,2.7c-11.4.3-12.5-.3-18.3,1.4-2.7.8-2,2.6-.1,2.1s4.6-1.5,16.9-.7c3.1.1,6.5-.6,6.5-5.7s-3.6-18.4-2.4-20.3a6.9,6.9,0,0,0,3.5,1.4c-.2,4.5,7,19,3.8,27-1.2,3-6.4,2.7-15.4,1.8C72.7,171.6,67.7,174.9,67.4,173.1Zm35.1,9.9c-5.9,2-8.3-4.9-7.3-6.4s4.4,1,7.3-.9S106,181.8,102.5,183Zm-27,4.3c-.8-3.7-1.1-10,.4-11.5s4.9-.9,4.8.2c-.3,4.3-2.1,9.2,1.2,14.1C83.2,192,76.7,192.3,75.5,187.3Zm11.4,4.2c-1.6-.4-6-7.4-2.4-15.8.3-.8,5.8-.3,6.8,0s-.8,6.8,6.8,9.8C98.8,185.8,98,194.3,86.9,191.5Zm47.2-23.3c-2.5,8.8-3.8,12.3,0,21.9.5,1.3.9,2.3-.2,2.1-7.7-1.4-9.4-2.6-33.7-.6-1.7.2.6-3.4.3-5.8,2.2-.3,5.8-1.3,6.5-4.9s-2.1-7.6-1.8-8.2c3.5-6.7-.2-14.1-3.1-26.6-.3-1.2.4-1.7.9-1.1,15.6,16.9,25.5,20.2,30.9,21.8C134.4,167,134.3,167.6,134.1,168.2ZM174,122.1c-3.3,2.9-8.3,3.1-10.3,4.9s-1.5,2.5-.4,5.2,1.1,1.7-1.1,2.3-4.1,5.8-8.8,4.9c-1.8-.3-.5.8.2.9,2.6.3,3.7-.5,4.6-1.4s2.2-2.4,3.6-2.9,2.9-.5,3,.6-1.9,2.1-2.7,2.5c1,.5,3.9,1.9,1.4,3.6s-4.6-.5-4.9-.7-1.7-.2-1.3.3,5.2,1.3,4.5,2.2c-3.5,4.7-.6,7.5-1.7,12.3s-7.7,7.5-12.8,8.4c-17.4,3.1-34.3-11.6-44.2-22.8.9-2.1.8-4.8-.1-3.8s-.7,2.4-2.8,2.9c-3.9,1-5.7-5.9-6.9-7.1-4.8-4.7-6.7-11.4-3.9-17.3s9-4.7,11.4-1.1,1.7,7,3.4,8.3,4.8.2,5.4,0,1.7,4.3,8,4.1,5.9-10.7,6.9-11.6c8.6-8.4,4.2-15.9,2.6-17.6s1-3.6,1.5-3.7a13,13,0,0,0,9.4-7.7s8.4-.2,11.4-6.2c.8-1.6,3.3,1.5,8.9-2.9a.8.8,0,0,1,1.4.3c3.7,8.9,5.2,11.3,4.9,15.8s8.7,21.5,9.4,23.1S174.8,121.3,174,122.1Z"/><path class="minerva-base-style" d="M153.8,90c-4.9.2-10.6,6.2-12.4,7s-1.3,1.5-.2,1.1,5.9-4.7,10.7-6.4,3.6,1.8,5,1.6S156.6,89.9,153.8,90Z"/><path class="minerva-base-style" d="M154.9,94.8c-.4.1.4,2.2-1.7,2.3-4.6.3-8.3,4.7-11.1,6a12.9,12.9,0,0,1-3.8,1.4.3.3,0,0,0,.1.6c11.7,1.6,16.2,1.1,16.3.7s-.6-1.2-.4-1.7a11.3,11.3,0,0,0,.1-5.5c-.2-.8,1.8-.3,1.8-1.3S155.6,94.7,154.9,94.8Zm-1.8,9.3c-.2.9-5.5.5-8.3.2-.7,0-1.8-.1.3-1.4s4.1-2.8,7.2-3.4a.8.8,0,0,1,.8.6A10.6,10.6,0,0,1,153.1,104.1Z"/><path class="minerva-base-style" d="M168.4,120.8c-.9,0-4.5,1.6-5.9,2.5s-4.4,2.7-4.2-.8c.1-1.3.9-4.4.9-5.3s-1-.7-1.1,0a36.9,36.9,0,0,1-.7,5.3c-.4,1.8,1.2,4,3.6,2.7s4.8-2.9,7.3-3.4C168.9,121.7,169,120.8,168.4,120.8Z"/><path class="minerva-base-style" d="M100.5,133.6c-.7-.3-.5,1.2-1.4,1s-.2-1.3-1.8-3-2.8-1.2-4.3-3.6-.3-12,3.1-10.8,1.6,5,1,8,2.5,2.8,2.8,2.1-1.1-.9-1.4-1.9,3.5-7.6-1.8-9.4c-3.8-1.3-6.4,3.6-5.9,8.9a8,8,0,0,0,5.1,7.1c2.3.8.6,4,3.7,4C101,136,101.3,133.9,100.5,133.6Z"/><path class="minerva-base-style" d="M131.3,33.4c.2.1.3,0,.5-.1l6.5-8.3a.5.5,0,0,0-.2-.6L137,24a.4.4,0,0,0-.5.1L130,32.4c-.2.2-.1.5.2.6Z"/><path class="minerva-base-style" d="M119.2,30l1.1.3a.5.5,0,0,0,.5-.3l3.8-9.4a.4.4,0,0,0-.3-.6l-1.2-.2h-.3l-3.9,9.6A.4.4,0,0,0,119.2,30Z"/><path class="minerva-base-style" d="M105.8,28.7h1.1c.2.1.4-.1.4-.3l1-10a.5.5,0,0,0-.4-.5h-1.1c-.3,0-.4.2-.5.4l-.9,10A.4.4,0,0,0,105.8,28.7Z"/><path class="minerva-base-style" d="M92.8,29.7l1.1-.2c.2,0,.4-.2.3-.4l-1.9-9.9c0-.2-.2-.4-.4-.3H90.7c-.2.1-.4.3-.3.5l1.9,9.9C92.3,29.6,92.5,29.7,92.8,29.7Z"/><path class="minerva-base-style" d="M79.4,32.8l.5.2,1.1-.4a.4.4,0,0,0,.3-.6l-4.6-9a.4.4,0,0,0-.5-.2l-1,.3a.4.4,0,0,0-.3.6Z"/><path class="minerva-base-style" d="M67,38.5c.1.2.3.2.5.1l1-.6a.4.4,0,0,0,.1-.6l-6.7-7.7c-.2-.2-.4-.2-.5-.1l-1,.6c-.3.1-.3.4-.1.6Z"/><path class="minerva-base-style" d="M55.4,46.7c.2.1.4.1.5-.1l.9-.7a.5.5,0,0,0,0-.7l-8.5-5.9h-.5l-.9.8a.5.5,0,0,0,0,.7Z"/><path class="minerva-base-style" d="M45.4,57.1a.4.4,0,0,0,.4-.2l.8-.9c.2-.2.1-.5-.2-.6l-9.8-3.8c-.2-.1-.4-.1-.5.1l-.7.9a.4.4,0,0,0,.2.7Z"/><path class="minerva-base-style" d="M26.8,67.8l10.5,1.5c.2,0,.4-.1.4-.3l.6-1a.4.4,0,0,0-.3-.6L27.5,65.9l-.5.2a5.4,5.4,0,0,1-.5,1.1A.4.4,0,0,0,26.8,67.8Z"/><path class="minerva-base-style" d="M21.1,83.7l10.7-1a.3.3,0,0,0,.3-.3,7.6,7.6,0,0,0,.4-1.1.4.4,0,0,0-.4-.6l-10.8,1-.4.3-.3,1.2C20.6,83.5,20.8,83.8,21.1,83.7Z"/><path class="minerva-base-style" d="M29.2,96.5c0-.4.1-.9.1-1.3s-.2-.5-.5-.4L18.4,98.4c-.2.1-.3.2-.3.4s-.1.8-.1,1.2a.4.4,0,0,0,.6.4l10.3-3.6A.3.3,0,0,0,29.2,96.5Z"/><path class="minerva-base-style" d="M28.9,110.8v-1.3a.5.5,0,0,0-.7-.4l-9.4,6.3c-.2,0-.2.2-.2.4s.1.8.1,1.2a.5.5,0,0,0,.7.3l9.4-6.2C28.9,111,29,110.9,28.9,110.8Z"/><path class="minerva-base-style" d="M31.3,125l-.3-1.3a.4.4,0,0,0-.7-.2L22.6,132c-.1.1-.2.3-.1.4s.3.8.4,1.2a.4.4,0,0,0,.7.2l7.6-8.4C31.3,125.3,31.3,125.2,31.3,125Z"/><path class="minerva-base-style" d="M35.2,137.7,29.8,148c-.1.1,0,.3,0,.4l.7,1.2a.4.4,0,0,0,.7-.1l5.4-10.2c0-.1.1-.2,0-.4l-.6-1.2A.5.5,0,0,0,35.2,137.7Z"/><path class="minerva-base-style" d="M42.9,149.3c-.2-.3-.7-.2-.7.1l-2.9,12c-.1.2,0,.3,0,.4l1,1a.4.4,0,0,0,.7-.1l2.8-11.9c.1-.1,0-.2,0-.3Z"/></g><rect x="366.666" y="0" width="2.65" height="300" style="fill: #006C66"/><g transform="translate(435.98199999999997 0) scale(3.6043417901203787) translate(0 0)"><g id="g830" transform="matrix(1.3333333,0,0,-1.3333333,-322.6646,104.89325)"><g id="g832"><g id="g834" clip-path="url(#clipPath838)"><g id="g844" transform="translate(231.3723,58.833)"/><g id="g990" transform="translate(290.9377,59.9781)"><path style="color:#000000;fill:#73d4f4;-inkscape-stroke:none" d="m 0,0 c 4.987,-5.021 9.27,-10.759 12.674,-17.061 0.163,-0.303 0.617,-0.223 0.665,0.118 1.4,10.048 -2.105,20.586 -10.28,27.803 -8.176,7.218 -19.068,9.389 -28.866,6.752 -0.331,-0.089 -0.352,-0.549 -0.032,-0.673 6.675,-2.597 12.899,-6.134 18.5,-10.46 0,0 -4.39,-1.562 -12.744,-2.526 -0.305,-0.036 -0.424,-0.417 -0.193,-0.619 L -8.027,-7.341 c 0.196,-0.171 0.491,-0.161 0.675,0.022 z" id="path992"/></g><g id="g994" transform="translate(289.6932,46.9193)"><path style="color:#000000;fill:#73aeab;-inkscape-stroke:none" d="m 0,0 c -0.046,0.284 -0.379,0.422 -0.612,0.253 -2.376,-1.727 -4.548,-3.817 -6.428,-6.265 -5.508,-7.173 -7.427,-15.971 -6.041,-24.238 0.037,-0.224 0.247,-0.38 0.472,-0.353 8.32,1.019 16.211,5.358 21.524,12.677 1.813,2.498 3.201,5.174 4.181,7.943 0.096,0.271 -0.131,0.551 -0.416,0.514 C 7.753,-10.107 2.983,-11.91 -1.183,-14.808 0.413,-9.992 0.788,-4.906 0,0" id="path996"/></g><g id="g998" transform="translate(270.1685,16.2482)"><path style="color:#000000;fill:#26827d;-inkscape-stroke:none" d="M 0,0 C 0.299,-0.027 0.532,0.13 0.487,0.473 -1.201,14.029 -11.542,24.847 -24.777,27.32 l 6.044,6.016 c 0.196,0.195 0.185,0.515 -0.023,0.696 l -7.451,6.494 c -0.192,0.168 -0.496,0.084 -0.571,-0.159 -0.854,-2.766 -1.339,-5.696 -1.388,-8.736 C -28.427,15.237 -16.029,1.589 0,0" id="path1000"/></g><g id="g1002" transform="translate(252.3116,62.2851)"><path style="color:#000000;fill:#3f9fac;-inkscape-stroke:none" d="M 0,0 C 0.538,4.97 2.882,9.499 6.443,12.8 6.758,13.092 7.223,12.672 6.966,12.328 4.416,8.904 2.927,4.683 2.908,0.205 c 5.209,0.003 10.307,-1.976 14.208,-5.752 4.635,-4.485 6.688,-10.629 6.14,-16.587 -0.019,-0.198 -0.174,-0.358 -0.371,-0.383 -5.937,-0.744 -12.145,1.107 -16.78,5.592 C 1.383,-12.356 -0.659,-6.063 0,0" id="path1004"/></g><g id="g1006" transform="translate(267.453,68.9049)"><path style="color:#000000;fill:#c6d325;-inkscape-stroke:none" d="m 0,0 c 0,-1.653 -1.34,-2.993 -2.993,-2.993 -1.653,0 -2.993,1.34 -2.993,2.993 0,1.653 1.34,2.993 2.993,2.993 C -1.34,2.993 0,1.653 0,0" id="path1008"/></g></g></g></g></g><g transform="translate(803.3876613961177 8.431118999999995)"><g transform="translate(0 99.060381)" style="fill: #006c66;"><path d="M5.500-62L22.094-62L37.922-17.029L53.656-62L70.328-62L70.328 0L57.594 0L57.594-16.951L58.859-46.213L42.234 0L33.516 0L16.922-46.166L18.203-16.951L18.203 0L5.500 0L5.500-62ZM129.563 0L125.281-12.719L103.031-12.719L98.797 0L85.297 0L108.234-62L120-62L143.063 0L129.563 0ZM114.109-46.339L106.453-23L121.859-23L114.109-46.339ZM168-62L179.547-40.631L191.109-62L205.703-62L187.766-31.259L206.172 0L191.391 0L179.547-21.715L167.703 0L152.938 0L171.344-31.259L153.391-62L168-62ZM275.328-21.703L264.203-21.703L264.203 0L251.500 0L251.500-62L275.531-62Q282.484-62 287.750-59.436Q293.016-56.872 295.852-52.155Q298.688-47.437 298.688-41.410L298.688-41.410Q298.688-32.259 292.484-26.981Q286.281-21.703 275.328-21.703L275.328-21.703ZM264.203-51.719L264.203-32L275.531-32Q280.578-32 283.219-34.415Q285.859-36.830 285.859-41.325L285.859-41.325Q285.859-45.932 283.195-48.786Q280.531-51.639 275.828-51.719L275.828-51.719L264.203-51.719ZM329.203-62L329.203-10.203L356.156-10.203L356.156 0L316.500 0L316.500-62L329.203-62ZM411.563 0L407.281-12.719L385.031-12.719L380.797 0L367.297 0L390.234-62L402-62L425.063 0L411.563 0ZM396.109-46.339L388.453-23L403.859-23L396.109-46.339ZM489.609-62L489.609 0L476.906 0L452.203-40.804L452.203 0L439.500 0L439.500-62L452.203-62L476.953-21.117L476.953-62L489.609-62ZM545.172-20.375L557.875-20.375Q557.156-10.422 550.531-4.711Q543.906 1 533.078 1L533.078 1Q521.219 1 514.430-6.937Q507.641-14.874 507.641-28.728L507.641-28.728L507.641-32.475Q507.641-41.321 510.773-48.054Q513.906-54.786 519.727-58.393Q525.547-62 533.234-62L533.234-62Q543.906-62 550.422-56.281Q556.938-50.563 557.953-40.234L557.953-40.234L545.266-40.234Q544.797-46.203 541.938-48.891Q539.078-51.578 533.234-51.578L533.234-51.578Q526.891-51.578 523.742-47.065Q520.594-42.551 520.500-33.059L520.500-33.059L520.500-28.437Q520.500-18.526 523.531-13.943Q526.563-9.359 533.078-9.359L533.078-9.359Q538.953-9.359 541.852-12.047Q544.750-14.734 545.172-20.375L545.172-20.375ZM609.625 0L593.797-24.875L587.203-17.721L587.203 0L574.500 0L574.500-62L587.203-62L587.203-33.901L592.781-41.606L608.484-62L624.094-62L602.219-34.451L624.734 0L609.625 0ZM682-62L682 0L669.313 0L669.313-62L682-62ZM752.609-62L752.609 0L739.906 0L715.203-40.804L715.203 0L702.500 0L702.500-62L715.203-62L739.953-21.117L739.953-62L752.609-62ZM804.453-15.963L804.453-15.963Q804.453-19.529 801.914-21.436Q799.375-23.344 792.773-25.468Q786.172-27.593 782.313-29.660L782.313-29.660Q771.828-35.289 771.828-44.851L771.828-44.851Q771.828-49.826 774.641-53.721Q777.453-57.615 782.719-59.808Q787.984-62 794.547-62L794.547-62Q801.156-62 806.313-59.613Q811.469-57.227 814.328-52.897Q817.188-48.567 817.188-43.047L817.188-43.047L804.500-43.047Q804.500-47.237 801.828-49.556Q799.156-51.875 794.344-51.875L794.344-51.875Q789.688-51.875 787.102-49.930Q784.516-47.985 784.516-44.820L784.516-44.820Q784.516-41.841 787.547-39.834Q790.578-37.827 796.453-36.052L796.453-36.052Q807.281-32.814 812.234-28.003Q817.188-23.193 817.188-16.032L817.188-16.032Q817.188-8.061 811.141-3.530Q805.094 1 794.844 1L794.844 1Q787.734 1 781.898-1.589Q776.063-4.177 772.992-8.686Q769.922-13.195 769.922-19.119L769.922-19.119L782.656-19.119Q782.656-9.031 794.844-9.031L794.844-9.031Q799.375-9.031 801.914-10.853Q804.453-12.675 804.453-15.963ZM880.875-62L880.875-51.719L862.016-51.719L862.016 0L849.313 0L849.313-51.719L830.688-51.719L830.688-62L880.875-62ZM910-62L910 0L897.313 0L897.313-62L910-62ZM975.875-62L975.875-51.719L957.016-51.719L957.016 0L944.313 0L944.313-51.719L925.688-51.719L925.688-62L975.875-62ZM1025.391-62L1038.141-62L1038.141-21.067Q1038.141-10.869 1031.813-4.934Q1025.484 1 1014.516 1L1014.516 1Q1003.734 1 997.383-4.761Q991.031-10.522 990.906-20.594L990.906-20.594L990.906-62L1003.609-62L1003.609-20.918Q1003.609-14.792 1006.508-11.998Q1009.406-9.203 1014.516-9.203L1014.516-9.203Q1025.234-9.203 1025.391-20.571L1025.391-20.571L1025.391-62ZM1103.875-62L1103.875-51.719L1085.016-51.719L1085.016 0L1072.313 0L1072.313-51.719L1053.688-51.719L1053.688-62L1103.875-62ZM1156.578-37L1156.578-27.063L1132.203-27.063L1132.203-10.203L1160.797-10.203L1160.797 0L1119.500 0L1119.500-62L1160.719-62L1160.719-51.719L1132.203-51.719L1132.203-37L1156.578-37Z"/></g><g transform="translate(0 179.070381)" style="fill: #006c66;"><path d="M33.219-27L33.219-21.641L12.344-21.641L12.344 0L5.781 0L5.781-50L36.609-50L36.609-44.594L12.344-44.594L12.344-27L33.219-27ZM85.063-26.035L85.063-22.903Q85.063-15.610 82.602-10.172Q80.141-4.734 75.625-1.867Q71.109 1 65.094 1L65.094 1Q59.219 1 54.672-1.883Q50.125-4.765 47.617-10.102Q45.109-15.439 45.031-22.451L45.031-22.451L45.031-26.035Q45.031-33.187 47.531-38.680Q50.031-44.172 54.594-47.086Q59.156-50 65.031-50L65.031-50Q71.016-50 75.578-47.117Q80.141-44.235 82.602-38.765Q85.063-33.296 85.063-26.035L85.063-26.035ZM78.531-22.421L78.531-26.096Q78.531-34.924 74.977-39.642Q71.422-44.359 65.031-44.359L65.031-44.359Q58.813-44.359 55.242-39.642Q51.672-34.924 51.563-26.547L51.563-26.547L51.563-22.904Q51.563-14.356 55.172-9.467Q58.781-4.578 65.094-4.578L65.094-4.578Q71.453-4.578 74.938-9.195Q78.422-13.811 78.531-22.421L78.531-22.421ZM126.828 0L116.031-20.625L104.344-20.625L104.344 0L97.750 0L97.750-50L114.219-50Q122.625-50 127.156-46.206Q131.688-42.412 131.688-35.165L131.688-35.165Q131.688-30.551 129.172-27.136Q126.656-23.722 122.188-22.019L122.188-22.019L133.875-0.415L133.875 0L126.828 0ZM104.344-44.594L104.344-26L114.422-26Q119.313-26 122.203-28.496Q125.094-30.991 125.094-35.166L125.094-35.166Q125.094-39.710 122.336-42.137Q119.578-44.563 114.391-44.594L114.391-44.594L104.344-44.594ZM181.031 0L163.781 0L163.781-50L180.047-50Q188.141-50 192.227-46.680Q196.313-43.359 196.313-36.857L196.313-36.857Q196.313-33.405 194.328-30.751Q192.344-28.096 188.938-26.641L188.938-26.641Q192.969-25.480 195.313-22.269Q197.656-19.059 197.656-14.608L197.656-14.608Q197.656-7.789 193.313-3.894Q188.969 0 181.031 0L181.031 0ZM181.281-23.734L170.344-23.734L170.344-5.359L181.172-5.359Q185.750-5.359 188.398-7.802Q191.047-10.245 191.047-14.507L191.047-14.507Q191.047-23.734 181.281-23.734L181.281-23.734ZM170.344-44.594L170.344-29L180.250-29Q184.563-29 187.141-31.119Q189.719-33.237 189.719-36.874L189.719-36.874Q189.719-40.926 187.328-42.760Q184.938-44.594 180.047-44.594L180.047-44.594L170.344-44.594ZM217.813-50L217.813 0L211.250 0L211.250-50L217.813-50ZM271.063-26.035L271.063-22.903Q271.063-15.610 268.602-10.172Q266.141-4.734 261.625-1.867Q257.109 1 251.094 1L251.094 1Q245.219 1 240.672-1.883Q236.125-4.765 233.617-10.102Q231.109-15.439 231.031-22.451L231.031-22.451L231.031-26.035Q231.031-33.187 233.531-38.680Q236.031-44.172 240.594-47.086Q245.156-50 251.031-50L251.031-50Q257.016-50 261.578-47.117Q266.141-44.235 268.602-38.765Q271.063-33.296 271.063-26.035L271.063-26.035ZM264.531-22.421L264.531-26.096Q264.531-34.924 260.977-39.642Q257.422-44.359 251.031-44.359L251.031-44.359Q244.813-44.359 241.242-39.642Q237.672-34.924 237.563-26.547L237.563-26.547L237.563-22.904Q237.563-14.356 241.172-9.467Q244.781-4.578 251.094-4.578L251.094-4.578Q257.453-4.578 260.938-9.195Q264.422-13.811 264.531-22.421L264.531-22.421ZM290.375-50L290.375-5.359L313.953-5.359L313.953 0L283.781 0L283.781-50L290.375-50ZM360.063-26.035L360.063-22.903Q360.063-15.610 357.602-10.172Q355.141-4.734 350.625-1.867Q346.109 1 340.094 1L340.094 1Q334.219 1 329.672-1.883Q325.125-4.765 322.617-10.102Q320.109-15.439 320.031-22.451L320.031-22.451L320.031-26.035Q320.031-33.187 322.531-38.680Q325.031-44.172 329.594-47.086Q334.156-50 340.031-50L340.031-50Q346.016-50 350.578-47.117Q355.141-44.235 357.602-38.765Q360.063-33.296 360.063-26.035L360.063-26.035ZM353.531-22.421L353.531-26.096Q353.531-34.924 349.977-39.642Q346.422-44.359 340.031-44.359L340.031-44.359Q333.813-44.359 330.242-39.642Q326.672-34.924 326.563-26.547L326.563-26.547L326.563-22.904Q326.563-14.356 330.172-9.467Q333.781-4.578 340.094-4.578L340.094-4.578Q346.453-4.578 349.938-9.195Q353.422-13.811 353.531-22.421L353.531-22.421ZM409.516-24L409.516-6.086Q406.984-2.528 402.461-0.764Q397.938 1 391.922 1L391.922 1Q385.828 1 381.117-1.852Q376.406-4.703 373.820-9.946Q371.234-15.190 371.172-22.108L371.172-22.108L371.172-26.440Q371.172-37.659 376.414-43.830Q381.656-50 391.172-50L391.172-50Q398.953-50 403.703-46.016Q408.453-42.031 409.516-34.719L409.516-34.719L402.953-34.719Q401.109-44.594 391.203-44.594L391.203-44.594Q384.609-44.594 381.203-39.977Q377.797-35.360 377.766-26.610L377.766-26.610L377.766-22.561Q377.766-14.216 381.594-9.295Q385.422-4.375 391.953-4.375L391.953-4.375Q395.641-4.375 398.414-5.169Q401.188-5.964 402.984-7.840L402.984-7.840L402.984-18.672L391.469-18.672L391.469-24L409.516-24ZM429.813-50L429.813 0L423.250 0L423.250-50L429.813-50ZM474.781-15.484L481.391-15.484Q480.453-7.578 475.555-3.289Q470.656 1 462.516 1L462.516 1Q453.703 1 448.383-5.311Q443.063-11.621 443.063-22.186L443.063-22.186L443.063-26.954Q443.063-33.873 445.547-39.124Q448.031-44.375 452.570-47.187Q457.109-50 463.094-50L463.094-50Q471.031-50 475.813-45.570Q480.594-41.141 481.391-33.313L481.391-33.313L474.781-33.313Q473.938-39.266 471.078-41.930Q468.219-44.594 463.094-44.594L463.094-44.594Q456.813-44.594 453.242-39.962Q449.672-35.329 449.672-26.781L449.672-26.781L449.672-21.985Q449.672-13.904 453.055-9.140Q456.438-4.375 462.516-4.375L462.516-4.375Q467.984-4.375 470.906-6.852Q473.828-9.328 474.781-15.484L474.781-15.484ZM525.016 0L520.250-12.594L499.406-12.594L494.719 0L487.953 0L506.969-50L512.703-50L531.734 0L525.016 0ZM509.828-41.868L501.391-18L518.313-18L509.828-41.868ZM548.375-50L548.375-5.359L571.953-5.359L571.953 0L541.781 0L541.781-50L548.375-50ZM608.813-50L608.813 0L602.250 0L602.250-50L608.813-50ZM662.031-50L662.031 0L655.422 0L630.375-38.524L630.375 0L623.781 0L623.781-50L630.375-50L655.500-11.303L655.500-50L662.031-50ZM710.156-50L710.156-44.594L694.172-44.594L694.172 0L687.641 0L687.641-44.594L671.672-44.594L671.672-50L710.156-50ZM748.906-29L748.906-23.625L727.344-23.625L727.344-5.359L752.391-5.359L752.391 0L720.781 0L720.781-50L752.047-50L752.047-44.594L727.344-44.594L727.344-29L748.906-29ZM769.375-50L769.375-5.359L792.953-5.359L792.953 0L762.781 0L762.781-50L769.375-50ZM810.375-50L810.375-5.359L833.953-5.359L833.953 0L803.781 0L803.781-50L810.375-50ZM850.813-50L850.813 0L844.250 0L844.250-50L850.813-50ZM902.516-24L902.516-6.086Q899.984-2.528 895.461-0.764Q890.938 1 884.922 1L884.922 1Q878.828 1 874.117-1.852Q869.406-4.703 866.820-9.946Q864.234-15.190 864.172-22.108L864.172-22.108L864.172-26.440Q864.172-37.659 869.414-43.830Q874.656-50 884.172-50L884.172-50Q891.953-50 896.703-46.016Q901.453-42.031 902.516-34.719L902.516-34.719L895.953-34.719Q894.109-44.594 884.203-44.594L884.203-44.594Q877.609-44.594 874.203-39.977Q870.797-35.360 870.766-26.610L870.766-26.610L870.766-22.561Q870.766-14.216 874.594-9.295Q878.422-4.375 884.953-4.375L884.953-4.375Q888.641-4.375 891.414-5.169Q894.188-5.964 895.984-7.840L895.984-7.840L895.984-18.672L884.469-18.672L884.469-24L902.516-24ZM943.906-29L943.906-23.625L922.344-23.625L922.344-5.359L947.391-5.359L947.391 0L915.781 0L915.781-50L947.047-50L947.047-44.594L922.344-44.594L922.344-29L943.906-29ZM997.031-50L997.031 0L990.422 0L965.375-38.524L965.375 0L958.781 0L958.781-50L965.375-50L990.500-11.303L990.500-50L997.031-50ZM1041.781-15.484L1048.391-15.484Q1047.453-7.578 1042.555-3.289Q1037.656 1 1029.516 1L1029.516 1Q1020.703 1 1015.383-5.311Q1010.063-11.621 1010.063-22.186L1010.063-22.186L1010.063-26.954Q1010.063-33.873 1012.547-39.124Q1015.031-44.375 1019.570-47.187Q1024.109-50 1030.094-50L1030.094-50Q1038.031-50 1042.813-45.570Q1047.594-41.141 1048.391-33.313L1048.391-33.313L1041.781-33.313Q1040.938-39.266 1038.078-41.930Q1035.219-44.594 1030.094-44.594L1030.094-44.594Q1023.813-44.594 1020.242-39.962Q1016.672-35.329 1016.672-26.781L1016.672-26.781L1016.672-21.985Q1016.672-13.904 1020.055-9.140Q1023.438-4.375 1029.516-4.375L1029.516-4.375Q1034.984-4.375 1037.906-6.852Q1040.828-9.328 1041.781-15.484L1041.781-15.484ZM1087.906-29L1087.906-23.625L1066.344-23.625L1066.344-5.359L1091.391-5.359L1091.391 0L1059.781 0L1059.781-50L1091.047-50L1091.047-44.594L1066.344-44.594L1066.344-29L1087.906-29Z"/></g><g transform="translate(0 235.077381)" style="fill: #006c66;"><path d="M3.188-14.108L3.188-14.108Q3.188-19.454 4.633-24.375Q6.078-29.297 8.945-33.322Q11.813-37.347 14.906-39L14.906-39L15.813-36.111Q12.328-33.468 10.086-28.022Q7.844-22.575 7.625-15.839L7.625-15.839L7.609-13.830Q7.609-4.698 10.984 2.023L10.984 2.023Q13.016 6.056 15.813 8.327L15.813 8.327L14.906 11Q11.719 9.239 8.828 5.129L8.828 5.129Q3.188-2.922 3.188-14.108ZM27.969-35L27.969 0L23.375 0L23.375-35L27.969-35ZM64.813-35L64.813 0L60.203 0L42.656-26.964L42.656 0L38.047 0L38.047-35L42.656-35L60.250-7.910L60.250-35L64.813-35ZM108.250-19L108.250-15.250L93.641-15.250L93.641 0L89.047 0L89.047-35L110.625-35L110.625-31.219L93.641-31.219L93.641-19L108.250-19ZM144.844-18.562L144.844-16.408Q144.844-11.397 143.117-7.669Q141.391-3.942 138.234-1.971Q135.078 0 130.875 0L130.875 0Q126.750 0 123.570-1.978Q120.391-3.957 118.633-7.616Q116.875-11.275 116.828-16.102L116.828-16.102L116.828-18.562Q116.828-23.466 118.570-27.232Q120.313-30.997 123.508-32.999Q126.703-35 130.813-35L130.813-35Q135-35 138.195-33.022Q141.391-31.043 143.117-27.293Q144.844-23.542 144.844-18.562L144.844-18.562ZM140.266-16.080L140.266-18.600Q140.266-24.611 137.781-27.829Q135.297-31.047 130.813-31.047L130.813-31.047Q126.469-31.047 123.969-27.829Q121.469-24.611 121.391-18.903L121.391-18.903L121.391-16.414Q121.391-10.570 123.914-7.238Q126.438-3.906 130.875-3.906L130.875-3.906Q135.313-3.906 137.758-7.056Q140.203-10.206 140.266-16.080L140.266-16.080ZM173.953-35L178.563-35L178.563-11.533Q178.547-6.641 175.469-3.537Q172.391-0.433 167.125-0.046L167.125-0.046L165.906 0Q160.188 0 156.789-3.057Q153.391-6.115 153.344-11.486L153.344-11.486L153.344-35L157.891-35L157.891-11.652Q157.891-7.910 159.977-5.838Q162.063-3.766 165.906-3.766L165.906-3.766Q169.813-3.766 171.883-5.822Q173.953-7.879 173.953-11.621L173.953-11.621L173.953-35ZM213.813-35L213.813 0L209.203 0L191.656-26.964L191.656 0L187.047 0L187.047-35L191.656-35L209.250-7.910L209.250-35L213.813-35ZM233.688 0L224.047 0L224.047-35L233.875-35Q238.422-35 241.914-32.975Q245.406-30.951 247.313-27.231Q249.219-23.511 249.234-18.677L249.234-18.677L249.234-16.433Q249.234-11.489 247.336-7.761Q245.438-4.034 241.906-2.040Q238.375-0.047 233.688 0L233.688 0ZM234-31.219L228.641-31.219L228.641-3.750L233.469-3.750Q238.781-3.750 241.734-7.074Q244.688-10.397 244.688-16.542L244.688-16.542L244.688-18.584Q244.688-24.540 241.898-27.856Q239.109-31.172 234-31.219L234-31.219ZM280.609 0L277.281-9.219L262.688-9.219L259.406 0L254.672 0L267.969-35L272-35L285.313 0L280.609 0ZM269.984-29.303L264.078-13L275.922-13L269.984-29.303ZM313.109-35L313.109-31.219L301.922-31.219L301.922 0L297.344 0L297.344-31.219L286.172-31.219L286.172-35L313.109-35ZM324.969-35L324.969 0L320.375 0L320.375-35L324.969-35ZM361.844-18.562L361.844-16.408Q361.844-11.397 360.117-7.669Q358.391-3.942 355.234-1.971Q352.078 0 347.875 0L347.875 0Q343.750 0 340.570-1.978Q337.391-3.957 335.633-7.616Q333.875-11.275 333.828-16.102L333.828-16.102L333.828-18.562Q333.828-23.466 335.570-27.232Q337.313-30.997 340.508-32.999Q343.703-35 347.813-35L347.813-35Q352-35 355.195-33.022Q358.391-31.043 360.117-27.293Q361.844-23.542 361.844-18.562L361.844-18.562ZM357.266-16.080L357.266-18.600Q357.266-24.611 354.781-27.829Q352.297-31.047 347.813-31.047L347.813-31.047Q343.469-31.047 340.969-27.829Q338.469-24.611 338.391-18.903L338.391-18.903L338.391-16.414Q338.391-10.570 340.914-7.238Q343.438-3.906 347.875-3.906L347.875-3.906Q352.313-3.906 354.758-7.056Q357.203-10.206 357.266-16.080L357.266-16.080ZM397.813-35L397.813 0L393.203 0L375.656-26.964L375.656 0L371.047 0L371.047-35L375.656-35L393.250-7.910L393.250-35L397.813-35ZM417.563-13.876L417.563-13.876Q417.563-8.592 416.164-3.756Q414.766 1.080 411.883 5.175Q409 9.269 405.844 11L405.844 11L404.906 8.327Q408.594 5.530 410.828-0.349Q413.063-6.228 413.109-13.397L413.109-13.397L413.109-14.155Q413.109-19.130 412.063-23.394Q411.016-27.659 409.133-31.043Q407.250-34.426 404.906-36.327L404.906-36.327L405.844-39Q409-37.269 411.859-33.221Q414.719-29.173 416.141-24.306Q417.563-19.439 417.563-13.876Z"/></g></g></svg>